<?xml version="1.0" standalone="no"?>
<!DOCTYPE svg PUBLIC "-//W3C//DTD SVG 20010904//EN"
 "http://www.w3.org/TR/2001/REC-SVG-20010904/DTD/svg10.dtd">
<svg version="1.0" xmlns="http://www.w3.org/2000/svg"
 width="545.000000pt" height="520.000000pt" viewBox="0 0 545.000000 520.000000"
 preserveAspectRatio="xMidYMid meet">

<g transform="translate(0.000000,520.000000) scale(0.100000,-0.100000)"
fill="#000000" stroke="none">
<path d="M2400 5105 l0 -94 -107 -3 -108 -3 -3 -107 -3 -108 -212 -2 -212 -3
-3 -107 -3 -107 -107 -3 -107 -3 -3 -107 -3 -108 -437 -2 -437 -3 -3 -314 c-1
-173 1 -318 6 -323 4 -4 54 -11 110 -14 l102 -7 0 -213 0 -213 -107 -3 -108
-3 -3 -107 -3 -108 -217 -2 -217 -3 -3 -107 -3 -107 -102 -3 -102 -3 -3 -211
-2 -212 22 -6 c13 -3 159 -6 326 -6 l302 0 0 -105 c0 -125 -15 -116 180 -113
74 1 213 1 308 0 l172 -2 0 -110 0 -109 -107 -3 -108 -3 -3 -102 -3 -102 -107
-3 -107 -3 -3 -107 -3 -107 -107 -3 -107 -3 -3 -107 -3 -107 -107 -3 -107 -3
-3 -209 c-2 -161 1 -211 10 -218 7 -4 57 -8 111 -8 l97 0 0 -104 c0 -122 -7
-116 133 -116 l87 0 0 -104 c0 -85 3 -105 16 -110 9 -3 58 -6 110 -6 l94 0 0
-104 c0 -85 3 -105 16 -110 9 -3 157 -6 330 -6 l314 0 0 -95 0 -95 325 0 325
0 0 95 0 95 220 0 220 0 0 -95 0 -95 330 0 330 0 0 205 0 204 103 3 102 3 3
108 3 107 424 0 c233 0 430 3 439 6 14 5 16 34 16 220 l0 213 108 3 107 3 3
107 3 107 107 3 107 3 3 107 3 107 107 3 107 3 3 110 3 110 97 0 97 0 3 323 2
322 -317 -2 -318 -3 -3 -108 -3 -107 -109 0 -110 0 0 -110 0 -110 -110 0 -110
0 0 -105 0 -105 -110 0 -110 0 0 -110 0 -110 -220 0 -220 0 0 110 0 110 -105
0 -105 0 0 105 0 105 215 0 215 0 0 110 0 110 110 0 110 0 0 110 0 110 110 0
110 0 0 110 0 109 108 3 107 3 0 760 0 760 -107 3 -107 3 -3 107 -3 107 -107
3 -107 3 -3 107 -3 107 -107 3 -107 3 -3 107 -3 107 -107 3 -107 3 -3 107 -3
107 -212 3 -213 2 0 95 0 95 -440 0 -440 0 0 -95z m660 -645 l0 -110 220 0
220 0 0 -110 0 -110 105 0 105 0 0 -110 0 -110 110 0 110 0 0 -325 0 -325 110
0 110 0 0 -220 0 -220 -110 0 -110 0 0 -110 0 -110 -110 0 -110 0 0 -220 0
-220 -105 0 -105 0 0 -110 0 -110 -875 0 -875 0 0 110 0 110 -110 0 -110 0 0
220 0 220 -110 0 -110 0 0 330 0 330 -110 0 -110 0 0 215 0 215 -110 0 -110 0
0 220 0 220 330 0 330 0 0 110 0 110 110 0 110 0 0 110 0 110 655 0 655 0 0
-110z m-220 -2840 l0 -110 -110 0 -110 0 0 -110 0 -110 -110 0 -110 0 0 110 0
110 -110 0 -110 0 0 110 0 110 330 0 330 0 0 -110z m-1090 -330 l0 -220 -110
0 -110 0 0 -110 0 -110 -110 0 -110 0 0 110 0 110 110 0 110 0 0 220 0 220
110 0 110 0 0 -220z m1960 0 l0 -220 110 0 110 0 0 -110 0 -110 -110 0 -110 0
0 110 0 110 -105 0 -105 0 0 220 0 220 105 0 105 0 0 -220z m-1090 -550 l0
-110 -110 0 -110 0 0 110 0 110 110 0 110 0 0 -110z"/>
<path d="M3710 3150 l0 -110 110 0 110 0 0 110 0 110 -110 0 -110 0 0 -110z"/>
<path d="M1750 2710 l0 -110 105 0 105 0 0 110 0 110 -105 0 -105 0 0 -110z"/>
<path d="M3060 2710 l0 -110 110 0 110 0 0 110 0 110 -110 0 -110 0 0 -110z"/>
<path d="M1960 2270 l0 -110 550 0 550 0 0 110 0 110 -550 0 -550 0 0 -110z"/>
</g>
</svg>
